{"title":"The.Amazing.Spider-Man.2.2014.720p.BRRip.x264-Fastbet99","uid":10766747,"size":1802998485,"categoryP":"video","categoryS":"hd___movies","magnet":"?xt=urn:btih:a25dd0247266f596e053e84235bf6318c35e6c2c&amp;dn=The.Amazing.Spider-Man.2.2014.720p.BRRip.x264-Fastbet99&amp;tr=udp%3A%2F%2Ftracker.openbittorrent.com%3A80&amp;tr=udp%3A%2F%2Fopen.demonii.com%3A1337&amp;tr=udp%3A%2F%2Ftracker.coppersurfer.tk%3A6969&amp;tr=udp%3A%2F%2Fexodus.desync.com%3A6969","seeders":6,"leechers":0,"uploader":"Fastbet99","files":-1,"time":1408038550,"description":"The Amazing Spider-Man 2 (2014)\n\nIMDB Info\t\t\t\t : http://www.imdb.com/title/tt1872181\n\nSource\t\t\t\t\t : HiDt (Thanks)\nComplete name                            : The.Amazing.Spider-Man.2.2014.720p.BRRip.x264-Fastbet99.mp4\nFormat                                   : MPEG-4\nFormat profile                           : Base Media\nCodec ID                                 : isom\nFile size                                : 1.68 GiB\nDuration                                 : 2h 21mn\nOverall bit rate mode                    : Variable\nOverall bit rate                         : 1 698 Kbps\n\nVideo\nID                                       : 1\nFormat                                   : AVC\nFormat/Info                              : Advanced Video Codec\nFormat profile                           : &lt;a class=&quot;__cf_email__&quot; href=&quot;/cdn-cgi/l/email-protection&quot; data-cfemail=&quot;a2eacbc5cae2ee968c93&quot;&gt;[email&amp;#160;protected]&lt;/a&gt;&lt;script cf-hash='f9e31' type=&quot;text/javascript&quot;&gt;\n/* &lt;![CDATA[ */!function(){try{var t=&quot;currentScript&quot;in document?document.currentScript:function(){for(var t=document.getElementsByTagName(&quot;script&quot;),e=t.length;e--;)if(t[e].getAttribute(&quot;cf-hash&quot;))return t[e]}();if(t&amp;&amp;t.previousSibling){var e,r,n,i,c=t.previousSibling,a=c.getAttribute(&quot;data-cfemail&quot;);if(a){for(e=&quot;&quot;,r=parseInt(a.substr(0,2),16),n=2;a.length-n;n+=2)i=parseInt(a.substr(n,2),16)^r,e+=String.fromCharCode(i);e=document.createTextNode(e),c.parentNode.replaceChild(e,c)}}}catch(u){}}();/* ]]&gt; */&lt;/script&gt;\nFormat settings, CABAC                   : Yes\nFormat settings, ReFrames                : 4 frames\nCodec ID                                 : avc1\nCodec ID/Info                            : Advanced Video Coding\nDuration                                 : 2h 21mn\nBit rate                                 : 1 534 Kbps\nMaximum bit rate                         : 8 836 Kbps\nWidth                                    : 1 280 pixels\nHeight                                   : 534 pixels\nDisplay aspect ratio                     : 2.40:1\nFrame rate mode                          : Constant\nFrame rate                               : 23.976 fps\nColor space                              : YUV\nChroma subsampling                       : 4:2:0\nBit depth                                : 8 bits\nScan type                                : Progressive\nBits/(Pixel*Frame)                       : 0.094\nStream size                              : 1.52 GiB (90%)\nWriting library                          : x264 core 142 r2431 ac76440\n\nAudio #1\nID                                       : 2\nFormat                                   : AAC\nFormat/Info                              : Advanced Audio Codec\nFormat profile                           : LC\nCodec ID                                 : 40\nDuration                                 : 2h 21mn\nBit rate mode                            : Variable\nBit rate                                 : 96.0 Kbps\nMaximum bit rate                         : 122 Kbps\nChannel count                            : 2 channels\nChannel positions                        : Front: L R\nSampling rate                            : 48.0 KHz\nCompression mode                         : Lossy\nStream size                              : 97.2 MiB (6%)\nLanguage                                 : English\n\nAudio #2\nID                                       : 3\nFormat                                   : AAC\nFormat/Info                              : Advanced Audio Codec\nFormat profile                           : HE-AAC / LC\nCodec ID                                 : 40\nDuration                                 : 2h 21mn\nBit rate mode                            : Variable\nBit rate                                 : 63.3 Kbps\nMaximum bit rate                         : 96.5 Kbps\nChannel count                            : 2 channels\nChannel positions                        : Front: L R\nSampling rate                            : 48.0 KHz / 24.0 KHz\nCompression mode                         : Lossy\nDelay relative to video                  : 30ms\nStream size                              : 64.1 MiB (4%)\n\nText #1\nID                                       : 4\nFormat                                   : Timed Text\nCodec ID                                 : tx3g\nDuration                                 : 2h 12mn\nBit rate mode                            : Variable\nBit rate                                 : 61 bps\nStream size                              : 59.1 KiB (0%)\nLanguage                                 : English\n\nText #2\nID                                       : 5\nFormat                                   : Timed Text\nCodec ID                                 : tx3g\nDuration                                 : 2h 20mn\nBit rate mode                            : Variable\nBit rate                                 : 69 bps\nStream size                              : 70.9 KiB (0%)\nTitle                                    : SDH\nLanguage                                 : English\n\nText #3\nID                                       : 6\nFormat                                   : Timed Text\nCodec ID                                 : tx3g\nDuration                                 : 2h 14mn\nBit rate mode                            : Variable\nBit rate                                 : 88 bps\nStream size                              : 86.5 KiB (0%)\nLanguage                                 : Bulgarian\n\nText #4\nID                                       : 7\nFormat                                   : Timed Text\nCodec ID                                 : tx3g\nDuration                                 : 2h 14mn\nBit rate mode                            : Variable\nBit rate                                 : 57 bps\nStream size                              : 56.1 KiB (0%)\nLanguage                                 : French\nEncoder\t\t\t\t\t : Fastbet99\n\nScreenshots\n &lt;a href=&quot;\nhttp://lookpic.com/O/i2/1818/DJ4fKpOg.jpeg&quot; rel=&quot;nofollow&quot; target=&quot;_NEW&quot;&gt;\nhttp://lookpic.com/O/i2/1818/DJ4fKpOg.jpeg&lt;/a&gt;\n\nStairway To heaven - Help People With Keep Seed As Long You Can","torrent":{"xt":"urn:btih:a25dd0247266f596e053e84235bf6318c35e6c2c","amp;dn":"The.Amazing.Spider-Man.2.2014.720p.BRRip.x264-Fastbet99","amp;tr":["udp%3A%2F%2Ftracker.openbittorrent.com%3A80","udp%3A%2F%2Fopen.demonii.com%3A1337","udp%3A%2F%2Ftracker.coppersurfer.tk%3A6969","udp%3A%2F%2Fexodus.desync.com%3A6969"],"infoHash":"a25dd0247266f596e053e84235bf6318c35e6c2c","infoHashBuffer":{"type":"Buffer","data":[162,93,208,36,114,102,245,150,224,83,232,66,53,191,99,24,195,94,108,44]},"announce":[],"urlList":[]}}